<?xml version="1.0" encoding="UTF-8"?>
<svg id="Capa_1" data-name="Capa 1" xmlns="http://www.w3.org/2000/svg" xmlns:xlink="http://www.w3.org/1999/xlink" viewBox="0 0 265.25 125.16">
  <defs>
    <style>
      .cls-1 {
        fill: #000;
      }

      .cls-1, .cls-2, .cls-3 {
        stroke-width: 0px;
      }

      .cls-2 {
        fill: none;
      }

      .cls-4 {
        clip-path: url(#clippath-1);
      }

      .cls-3 {
        fill: #ff1616;
      }

      .cls-5 {
        clip-path: url(#clippath);
      }
    </style>
    <clipPath id="clippath">
      <rect class="cls-2" x="61.52" y="21.78" width="87" height="75.75"/>
    </clipPath>
    <clipPath id="clippath-1">
      <rect class="cls-2" x="61.54" y="21.78" width="87" height="75.75"/>
    </clipPath>
  </defs>
  <g class="cls-5">
    <g class="cls-4">
      <path class="cls-3" d="M144.5,24.1h-78.93l39.47,68.75,39.47-68.75ZM61.55,21.78h86.97s-43.48,75.75-43.48,75.75L61.55,21.78Z"/>
    </g>
  </g>
  <path class="cls-1" d="M108.84,71.24h76.88L147.28,4.53l-38.44,66.71ZM189.63,73.5h-84.7L147.28,0l42.35,73.5Z"/>
  <rect class="cls-2" x="104.92" y="0" width="84.73" height="73.5"/>
  <path class="cls-1" d="M3.05,122.47h7.22v2.46H0v-13.27h10.03v2.46H3.05v8.34ZM2.82,117.01h6.39v2.39H2.82v-2.39Z"/>
  <path class="cls-1" d="M22.25,125.16c-1.06,0-2.08-.14-3.05-.43s-1.76-.65-2.35-1.11l1.04-2.31c.57.41,1.24.74,2.02,1,.78.26,1.56.39,2.36.39.61,0,1.1-.06,1.47-.18.37-.12.65-.29.82-.5.18-.21.27-.46.27-.74,0-.35-.14-.64-.42-.84-.28-.21-.64-.38-1.1-.51-.46-.13-.96-.26-1.51-.38-.55-.12-1.1-.27-1.65-.45-.55-.18-1.05-.4-1.51-.68-.46-.28-.82-.64-1.11-1.1s-.43-1.04-.43-1.74c0-.76.21-1.45.62-2.08.41-.62,1.03-1.12,1.86-1.5.83-.37,1.87-.56,3.12-.56.83,0,1.66.1,2.46.29.81.2,1.52.49,2.14.88l-.95,2.33c-.62-.35-1.24-.62-1.86-.79-.62-.17-1.23-.26-1.82-.26s-1.08.07-1.46.21c-.38.14-.65.32-.81.54-.16.22-.25.48-.25.77,0,.34.14.62.42.82.28.21.64.38,1.1.5.46.13.96.25,1.51.38.55.13,1.1.27,1.65.44s1.05.39,1.51.66c.46.28.82.64,1.11,1.1.28.46.43,1.03.43,1.73,0,.75-.21,1.43-.63,2.05s-1.04,1.12-1.87,1.5c-.83.38-1.87.57-3.14.57Z"/>
  <path class="cls-1" d="M37.96,124.93v-10.77h-4.25v-2.5h11.56v2.5h-4.25v10.77h-3.07Z"/>
  <path class="cls-1" d="M57.79,125.16c-1.88,0-3.36-.52-4.42-1.57s-1.59-2.55-1.59-4.49v-7.43h3.07v7.32c0,1.26.26,2.17.78,2.73.52.56,1.24.83,2.18.83s1.66-.28,2.18-.83c.52-.56.78-1.47.78-2.73v-7.32h3.03v7.43c0,1.95-.53,3.44-1.59,4.49s-2.53,1.57-4.42,1.57Z"/>
  <path class="cls-1" d="M71.38,124.93v-13.27h6.03c1.44,0,2.71.28,3.81.82,1.1.55,1.96,1.32,2.58,2.3s.93,2.15.93,3.51-.31,2.51-.93,3.5c-.62.99-1.48,1.76-2.58,2.31s-2.37.82-3.81.82h-6.03ZM74.45,122.41h2.81c.88,0,1.65-.17,2.3-.5s1.16-.81,1.52-1.43c.36-.62.54-1.35.54-2.18s-.18-1.58-.54-2.19c-.36-.61-.87-1.09-1.52-1.42s-1.42-.5-2.3-.5h-2.81v8.23Z"/>
  <path class="cls-1" d="M91.03,124.93v-13.27h3.07v13.27h-3.07Z"/>
  <path class="cls-1" d="M108.62,125.16c-1.05,0-2.02-.17-2.91-.51-.89-.34-1.66-.82-2.31-1.44s-1.16-1.35-1.52-2.18c-.36-.83-.54-1.74-.54-2.73s.18-1.9.54-2.73c.36-.83.87-1.56,1.53-2.18.66-.62,1.43-1.1,2.31-1.44.88-.34,1.85-.51,2.88-.51s2.01.17,2.89.51c.88.34,1.64.82,2.29,1.44s1.16,1.34,1.53,2.17c.37.83.55,1.74.55,2.74s-.18,1.9-.55,2.74c-.37.84-.88,1.57-1.53,2.18-.65.61-1.42,1.09-2.29,1.43-.88.34-1.84.51-2.87.51ZM108.6,122.54c.59,0,1.14-.1,1.64-.3s.94-.49,1.32-.87c.38-.38.67-.83.88-1.35.21-.52.31-1.09.31-1.72s-.1-1.21-.31-1.72c-.21-.52-.5-.97-.87-1.35-.37-.38-.81-.67-1.32-.87-.51-.2-1.06-.3-1.65-.3s-1.14.1-1.64.3c-.5.2-.94.49-1.32.87-.38.38-.67.83-.88,1.35-.21.52-.31,1.09-.31,1.72s.1,1.19.31,1.72.5.98.87,1.36c.37.38.81.67,1.32.87.5.2,1.05.3,1.65.3Z"/>
  <path class="cls-1" d="M132.05,124.93v-13.27h3.07v13.27h-3.07Z"/>
  <path class="cls-1" d="M143.2,124.93v-13.27h2.54l7.83,9.55h-1.23v-9.55h3.03v13.27h-2.52l-7.85-9.55h1.23v9.55h-3.03Z"/>
  <path class="cls-1" d="M165.96,124.93v-10.77h-4.25v-2.5h11.56v2.5h-4.25v10.77h-3.07Z"/>
  <path class="cls-1" d="M182.95,122.47h7.22v2.46h-10.27v-13.27h10.03v2.46h-6.98v8.34ZM182.72,117.01h6.39v2.39h-6.39v-2.39Z"/>
  <path class="cls-1" d="M204.19,125.16c-1.05,0-2.01-.17-2.89-.5-.88-.33-1.64-.81-2.29-1.43-.65-.62-1.16-1.35-1.52-2.18s-.54-1.75-.54-2.75.18-1.91.54-2.75c.36-.83.87-1.56,1.53-2.18s1.43-1.1,2.31-1.43,1.86-.5,2.92-.5c1.18,0,2.23.2,3.18.59s1.73.96,2.38,1.71l-1.97,1.82c-.48-.5-1-.88-1.57-1.13-.57-.25-1.19-.37-1.86-.37s-1.23.1-1.76.3c-.53.2-.99.49-1.37.87-.39.38-.68.83-.89,1.35-.21.52-.31,1.09-.31,1.72s.1,1.19.31,1.71c.21.52.5.97.89,1.36s.84.68,1.37.88,1.1.3,1.73.3,1.2-.1,1.77-.29c.58-.2,1.13-.53,1.68-1l1.74,2.22c-.72.54-1.56.96-2.51,1.25-.96.29-1.91.44-2.85.44ZM206.75,123.07v-4.99h2.81v5.38l-2.81-.4Z"/>
  <path class="cls-1" d="M216.98,124.93v-13.27h5.74c1.19,0,2.21.19,3.07.58.86.39,1.52.94,1.99,1.66.47.72.7,1.58.7,2.58s-.23,1.83-.7,2.55c-.47.71-1.13,1.26-1.99,1.64-.86.38-1.88.57-3.07.57h-4.04l1.37-1.35v5.04h-3.07ZM220.05,120.23l-1.37-1.44h3.87c.95,0,1.66-.21,2.12-.62.47-.41.7-.98.7-1.7s-.23-1.3-.7-1.71-1.17-.61-2.12-.61h-3.87l1.37-1.46v7.53ZM225.42,124.93l-3.32-4.81h3.28l3.36,4.81h-3.32Z"/>
  <path class="cls-1" d="M234.07,124.93l5.92-13.27h3.03l5.93,13.27h-3.22l-4.85-11.71h1.21l-4.87,11.71h-3.15ZM237.03,122.09l.82-2.33h6.82l.83,2.33h-8.47Z"/>
  <path class="cls-1" d="M255.52,124.93v-13.27h3.07v10.77h6.65v2.5h-9.72Z"/>
</svg>